<svg xmlns="http://www.w3.org/2000/svg" version="1.1" xmlns:xlink="http://www.w3.org/1999/xlink" xmlns:svgjs="http://svgjs.dev/svgjs" width="1920" height="1080" preserveAspectRatio="none" viewBox="0 0 1920 1080"><g mask="url(&quot;#SvgjsMask1232&quot;)" fill="none"><rect width="1920" height="1080" x="0" y="0" fill="url(&quot;#SvgjsLinearGradient1233&quot;)"></rect><path d="M1920 0L1336.1399999999999 0L1920 497.16z" fill="rgba(255, 255, 255, .1)"></path><path d="M1336.1399999999999 0L1920 497.16L1920 727.4300000000001L748.3899999999999 0z" fill="rgba(255, 255, 255, .075)"></path><path d="M748.3899999999999 0L1920 727.4300000000001L1920 878.3600000000001L428.1899999999999 0z" fill="rgba(255, 255, 255, .05)"></path><path d="M428.1899999999998 0L1920 878.3600000000001L1920 945.3700000000001L387.28999999999985 0z" fill="rgba(255, 255, 255, .025)"></path><path d="M0 1080L27.37 1080L0 626.23z" fill="rgba(0, 0, 0, .1)"></path><path d="M0 626.23L27.37 1080L153.52 1080L0 610.32z" fill="rgba(0, 0, 0, .075)"></path><path d="M0 610.3199999999999L153.52 1080L1064.65 1080L0 308.42999999999995z" fill="rgba(0, 0, 0, .05)"></path><path d="M0 308.43000000000006L1064.65 1080L1342.27 1080L0 99.61000000000007z" fill="rgba(0, 0, 0, .025)"></path></g><defs><mask id="SvgjsMask1232"><rect width="1920" height="1080" fill="#ffffff"></rect></mask><linearGradient x1="50%" y1="100%" x2="50%" y2="0%" gradientUnits="userSpaceOnUse" id="SvgjsLinearGradient1233"><stop stop-color="rgba(255, 255, 255, 1)" offset="0.13"></stop><stop stop-color="rgba(255, 174, 52, 1)" offset="1"></stop></linearGradient></defs></svg>